<svg xmlns="http://www.w3.org/2000/svg" xmlns:svg="http://www.w3.org/2000/svg" id="svg10280" width="26" height="156" version="1.1"><defs id="defs10282"><clipPath id="clipPath10190" clipPathUnits="userSpaceOnUse"><path id="path10192" d="m 0.06,162.536 199.94,0 0,-162.476 -199.94,0 0,162.476 z"/></clipPath><clipPath id="clipPath10196" clipPathUnits="userSpaceOnUse"><path id="path10198" d="M 0,0 200,0 200,163 0,163 0,0 z"/></clipPath></defs><metadata id="metadata10285"/><g id="layer2" style="display:none"><rect style="fill:#2b0000" id="rect3764" width="54.5" height="180" x="-14.25" y="-9.3"/></g><g id="layer1" transform="translate(-140,-206.36218)"><path style="color:#000;fill:#333;fill-opacity:1;fill-rule:nonzero;stroke:none;stroke-width:4;marker:none;visibility:visible;display:inline;overflow:visible;filter:url(#filter6591-2);enable-background:accumulate" id="path9750" d="m 158,265.36216 0,2 -1,0 c -6,0 -5,7 -5,7 0,0 1,-4 5,-4 l 1,0 0,2 4,-3.5 z m -10,3 c -0.47141,0 -1,0.5286 -1,1 l 0,7 c 0,0.4714 0.52859,1 1,1 l 8,0 c 0.4714,0 1,-0.5286 1,-1 l 0,-4.5 c -0.83334,0 -1.48921,0.2052 -2,0.5 l 0,3 -6,0 0,-5 2,0 c 0.21821,-0.6835 0.55907,-1.3771 1.0625,-2 z"/><path style="color:#000;fill:#333;fill-opacity:1;fill-rule:nonzero;stroke:none;stroke-width:.99999994000000003;marker:none;visibility:visible;display:inline;overflow:visible;enable-background:accumulate" id="path9758" d="m 152.5,216.36218 c -0.277,0 -0.5,0.223 -0.5,0.5 l 0,2.5 -2.5,0 c -0.277,0 -0.5,0.223 -0.5,0.5 l 0,1 c 0,0.277 0.223,0.5 0.5,0.5 l 2.5,0 0,2.5 c 0,0.277 0.223,0.5 0.5,0.5 l 1,0 c 0.277,0 0.5,-0.223 0.5,-0.5 l 0,-2.5 2.5,0 c 0.277,0 0.5,-0.223 0.5,-0.5 l 0,-1 c 0,-0.277 -0.223,-0.5 -0.5,-0.5 l -2.5,0 0,-2.5 c 0,-0.277 -0.223,-0.5 -0.5,-0.5 z"/><path id="path9760" d="m 149.5,244.36218 c -0.277,0 -0.5,0.223 -0.5,0.5 l 0,1 c 0,0.277 0.223,0.5 0.5,0.5 l 7,0 c 0.277,0 0.5,-0.223 0.5,-0.5 l 0,-1 c 0,-0.277 -0.223,-0.5 -0.5,-0.5 z" style="color:#000;fill:#333;fill-opacity:1;fill-rule:nonzero;stroke:none;stroke-width:.99999994000000003;marker:none;visibility:visible;display:inline;overflow:visible;enable-background:accumulate"/><g style="fill:#fff;fill-opacity:1;display:inline" id="g10087" transform="matrix(0.03596944,0,0,0.03596944,161.51786,304.41582)"><path style="fill:#fff;fill-opacity:1;fill-rule:nonzero;stroke:none" id="path10060" d="m 55,524 c -0.548782,0 -1,0.45099 -1,0.99977 L 54,541 c 0,0.54858 0.451218,1 1,1 l 8.625,0 0,-6.96875 -2.34375,0 0,-2.71875 2.34375,0 0,-2 c 0,-2.32495 1.394683,-3.59375 3.46875,-3.59375 0.993432,0 1.876136,0.0607 2.125,0.0937 l 0,2.4375 -1.4375,0 c -1.127913,0 -1.375,0.55723 -1.375,1.34375 l 0,1.71875 2.71875,0 -0.375,2.71875 -2.34375,0 0,6.96875 L 71,542 c 0.548579,0 1,-0.45142 1,-1 l 0,-16 c 0,-0.54878 -0.451421,-1 -1,-1 z" transform="matrix(18.534238,0,0,18.534238,-1404.4651,-9360.3542)"/></g><g id="g10182" transform="matrix(0.07002101,0,0,-0.07002101,145.9958,354.46638)" style="fill:#fff;fill-opacity:1;display:inline"><g id="g10186" style="fill:#fff;fill-opacity:1"><g id="g10188" clip-path="url(#clipPath10190)" style="fill:#fff;fill-opacity:1"><g id="g10194" clip-path="url(#clipPath10196)" style="fill:#fff;fill-opacity:1"><path id="path10200" style="fill:#fff;fill-opacity:1;fill-rule:nonzero;stroke:none" d="m 200,143.296 c -7.358,-3.264 -15.267,-5.47 -23.566,-6.461 8.47,5.078 14.977,13.119 18.041,22.701 -7.929,-4.703 -16.71,-8.117 -26.057,-9.957 -7.484,7.975 -18.148,12.957 -29.95,12.957 -22.66,0 -41.033,-18.371 -41.033,-41.031 0,-3.216 0.363,-6.348 1.063,-9.351 -34.102,1.711 -64.337,18.047 -84.574,42.872 -3.532,-6.06 -5.556,-13.109 -5.556,-20.629 0,-14.236 7.244,-26.795 18.254,-34.153 -6.726,0.213 -13.053,2.059 -18.585,5.132 -0.004,-0.171 -0.004,-0.342 -0.004,-0.516 0,-19.88 14.144,-36.464 32.915,-40.234 -3.443,-0.938 -7.068,-1.44 -10.81,-1.44 -2.644,0 -5.215,0.258 -7.72,0.737 C 27.639,47.622 42.792,35.758 60.748,35.428 46.705,24.422 29.013,17.862 9.788,17.862 6.476,17.862 3.21,18.057 0,18.436 18.159,6.794 39.727,0 62.899,0 c 75.473,0 116.746,62.524 116.746,116.747 0,1.779 -0.041,3.548 -0.12,5.308 8.018,5.786 14.974,13.012 20.475,21.241"/></g></g></g></g><path style="color:#000;fill:#333;fill-opacity:1;fill-rule:nonzero;stroke:none;stroke-width:1;marker:none;visibility:visible;display:inline;overflow:visible;enable-background:accumulate" id="path3080-6" d="m 152.5,292.06218 c -2.48528,0 -4.5,2.0147 -4.5,4.5 0,2.4853 2.01472,4.5 4.5,4.5 0.85403,0 1.66351,-0.2431 2.34375,-0.6563 l 3.65625,3.6563 1.5,-1.5 -3.65625,-3.6563 c 0.41316,-0.6802 0.65625,-1.4897 0.65625,-2.3437 0,-2.4853 -2.01472,-4.5 -4.5,-4.5 z m 0,1.5 c 1.65685,0 3,1.3431 3,3 0,1.6568 -1.34315,3 -3,3 -1.65685,0 -3,-1.3432 -3,-3 0,-1.6569 1.34315,-3 3,-3 z"/></g></svg>